<svg width="313" height="313" viewBox="0 0 313 313" fill="none" xmlns="http://www.w3.org/2000/svg">
<g clip-path="url(#clip0_1_669)">
<g clip-path="url(#clip1_1_669)">
<g clip-path="url(#clip2_1_669)">
<g clip-path="url(#clip3_1_669)">
<g clip-path="url(#clip4_1_669)">
<g clip-path="url(#clip5_1_669)">
<g clip-path="url(#clip6_1_669)">
<g clip-path="url(#clip7_1_669)">
<path d="M94.3753 196.562C89.0574 188.446 86.2585 179.209 84.2993 169.973C83.7395 166.614 82.8998 163.535 82.62 160.177C82.3401 156.818 80.6607 155.139 77.3021 154.299C72.5439 152.899 68.0657 150.94 63.3076 149.541C50.9924 145.622 43.1555 136.106 38.1175 125.19C33.0795 114.555 30.0007 103.359 31.68 90.7639C33.3593 77.6091 39.237 67.5331 48.4734 59.1364C63.0277 45.9816 80.3808 41.2234 99.4134 45.1419C115.087 48.2207 127.122 57.4571 135.519 70.8918C138.038 74.8102 140.557 76.4896 145.035 76.2097C149.794 75.9298 154.272 76.2097 159.03 76.4896C167.706 76.7695 175.823 79.2885 182.541 84.8863C191.497 92.1634 199.054 100.84 204.092 110.916C208.85 120.152 215.008 128.269 221.725 135.826C223.405 137.506 224.804 138.065 227.043 137.506C228.443 137.226 229.842 136.946 230.962 136.386C248.595 127.989 263.149 115.954 270.146 97.2014C272.385 91.0438 273.785 84.3265 271.826 77.6091C271.266 75.6499 270.986 73.6907 270.426 71.7314C268.747 61.6554 263.149 54.3783 254.752 49.6201C243.557 43.1827 230.962 41.5033 218.367 44.5821C212.769 45.9816 207.731 49.6201 202.413 52.419C200.454 49.3402 200.454 46.8212 203.532 44.862C210.81 40.1039 216.967 36.1854 223.684 33.3865C227.883 31.9871 232.921 32.5469 237.679 33.3865C251.673 35.9055 263.709 42.6229 272.385 54.3783C275.744 58.8565 278.263 64.4543 279.942 69.7722C281.902 75.9298 283.301 82.3672 283.021 88.8047C282.741 95.802 282.461 103.079 277.423 108.957C276.864 109.517 276.304 110.356 276.024 111.196C272.385 120.992 264.548 127.43 257.551 134.707C255.592 136.666 252.793 137.785 250.274 139.185C244.956 141.984 239.918 144.783 234.32 147.861C235.16 149.821 235.44 150.94 236.279 152.06C245.236 164.655 254.472 177.53 263.429 190.125C267.627 196.003 271.266 201.88 274.904 208.038C279.662 216.435 281.062 225.671 279.103 235.187C278.263 239.106 277.423 243.024 276.864 246.943C275.464 256.179 269.866 262.057 262.589 267.095C253.633 273.252 243.837 276.331 233.201 277.45C225.924 278.29 218.646 279.13 211.369 279.969C201.853 281.089 192.617 279.969 184.22 275.211C180.861 273.252 177.783 273.252 173.864 274.372C166.027 276.331 158.47 278.85 150.353 279.69C142.796 280.529 134.679 279.41 127.122 279.41C111.729 279.13 97.734 274.372 84.0194 268.214C68.6255 261.497 60.7885 248.342 58.5494 232.108C57.7098 226.231 57.9897 220.073 58.2695 213.915C58.5494 207.198 62.188 202.16 68.6255 199.641C74.2233 197.402 79.8211 196.562 85.6987 197.122C88.2178 197.402 91.0167 197.682 93.5357 197.962C93.8156 197.402 94.0954 196.842 94.3753 196.562ZM199.894 260.657C203.252 261.217 205.212 262.057 207.171 261.777C213.049 261.497 218.646 260.657 224.524 260.097C235.16 259.258 244.956 255.619 253.633 249.462C257.271 246.942 260.07 243.864 261.47 239.665C262.589 236.307 263.429 232.668 264.548 229.309C268.747 216.714 264.828 206.079 256.711 196.562C244.956 182.848 232.921 169.413 221.165 155.698C218.087 152.06 214.728 150.101 209.69 149.821C205.212 149.541 200.454 148.701 195.975 147.022C190.378 145.063 184.78 142.544 179.182 140.304C171.905 137.506 165.467 133.587 160.709 127.43C159.59 125.75 158.19 124.351 156.511 123.231C148.954 117.353 143.356 109.796 139.717 100.84C138.318 97.7612 136.639 96.3617 133 97.2014C130.481 98.0411 127.682 98.0411 125.163 98.8808C123.204 99.7204 120.965 100.84 119.845 102.519C114.807 110.636 110.049 119.033 105.571 127.43C103.612 131.068 102.492 135.266 103.612 138.905C110.889 140.025 117.606 140.304 123.764 141.984C138.598 145.902 152.033 152.899 164.908 161.296C184.5 174.171 199.054 191.524 207.451 213.356C213.888 229.589 214.448 245.543 199.894 260.657ZM115.647 151.78C115.647 152.06 115.367 152.34 115.367 152.62C113.688 152.62 111.729 152.899 110.049 152.899C109.489 152.899 108.65 153.179 108.09 153.179C103.892 154.299 102.492 155.698 103.892 159.897C105.571 165.495 106.69 171.372 109.769 176.13C115.367 185.087 120.405 194.323 123.764 204.119C124.883 207.478 126.843 209.717 129.641 211.956C137.758 217.834 145.875 223.712 153.152 230.429C159.87 236.587 165.747 243.584 171.905 250.301C176.663 255.339 178.062 255.899 183.94 252.54C190.378 248.902 195.695 243.584 199.334 237.146C201.573 232.948 203.252 228.75 202.133 223.712C198.774 209.437 191.217 197.122 180.581 187.326C166.307 174.171 148.674 165.215 131.321 156.538C126.563 154.019 120.965 153.179 115.647 151.78ZM127.122 76.7695C126.003 70.332 120.685 67.2532 116.487 63.6146C106.131 54.3783 94.3753 49.3402 80.3808 51.2995C67.7858 53.2587 57.4299 59.4163 49.3131 69.4923C47.6337 71.4515 45.9544 73.6907 45.1147 76.2097C40.9164 89.0846 42.3158 101.68 47.3538 113.995C52.9516 127.15 63.8673 133.867 76.1825 139.185C77.8618 140.025 79.8211 139.745 81.5004 139.745C82.0602 138.345 82.62 137.785 82.62 137.226C84.8591 123.511 92.696 112.036 97.4541 99.4405C98.0139 97.7612 99.1335 96.3617 100.253 94.9623C107.25 87.4053 114.807 80.6879 125.163 77.889C126.003 77.889 126.563 77.3292 127.122 76.7695ZM128.242 223.432C127.122 227.63 126.003 230.989 124.883 234.347C123.204 240.225 119.565 245.263 115.367 249.462C112.008 252.54 107.53 253.38 105.851 251.141C104.451 249.182 105.571 246.663 109.489 243.584C114.248 239.665 115.367 236.027 113.128 230.149C112.288 228.19 110.889 226.231 110.329 223.992C108.09 215.875 102.212 213.076 94.6552 211.676C83.4596 209.997 72.8238 215.035 68.0657 225.391C66.9461 227.63 66.6662 231.269 67.7858 233.788C72.264 243.584 78.7015 251.981 89.0574 255.899C109.489 264.016 130.481 267.654 152.592 262.057C156.791 260.937 160.989 259.817 166.027 258.138C155.951 243.024 142.516 233.228 128.242 223.432ZM149.234 96.9215C150.353 103.079 156.231 112.595 161.269 118.193C172.744 131.068 188.418 135.826 203.532 141.424C204.372 141.704 205.771 140.864 207.731 140.584C201.853 126.03 194.016 113.715 181.141 104.758C171.625 97.7612 160.989 95.2422 149.234 96.9215Z" fill="#F2F0E4"/>
</g>
</g>
</g>
</g>
</g>
</g>
</g>
</g>
<defs>
<clipPath id="clip0_1_669">
<rect width="251.867" height="247.932" fill="white" transform="translate(31.2041 32.486)"/>
</clipPath>
<clipPath id="clip1_1_669">
<rect width="251.838" height="247.836" fill="white" transform="translate(31.2188 32.5341)"/>
</clipPath>
<clipPath id="clip2_1_669">
<rect width="251.838" height="247.836" fill="white" transform="translate(31.2188 32.5341)"/>
</clipPath>
<clipPath id="clip3_1_669">
<rect width="251.838" height="247.836" fill="white" transform="translate(31.2188 32.5341)"/>
</clipPath>
<clipPath id="clip4_1_669">
<rect width="251.838" height="247.836" fill="white" transform="translate(31.2188 32.5341)"/>
</clipPath>
<clipPath id="clip5_1_669">
<rect width="251.838" height="247.836" fill="white" transform="translate(31.2188 32.5341)"/>
</clipPath>
<clipPath id="clip6_1_669">
<rect width="251.838" height="247.836" fill="white" transform="translate(31.2188 32.5341)"/>
</clipPath>
<clipPath id="clip7_1_669">
<rect width="251.838" height="247.836" fill="white" transform="translate(31.2188 32.5341)"/>
</clipPath>
</defs>
</svg>
